<svg xmlns="http://www.w3.org/2000/svg" width="224" height="224" viewBox="0 0 224 224" version="1.1"><path d="M 128 54.734 C 126.625 54.988, 122.926 56.277, 119.780 57.598 C 112.653 60.591, 111.177 60.584, 102.500 57.517 C 87.236 52.121, 73.012 56.077, 59.414 69.500 C 45.236 83.496, 37.059 103.467, 37.017 124.201 C 36.985 140.460, 41.328 152.513, 50.042 160.348 C 56.495 166.150, 62.928 168.343, 71.992 167.831 C 77.955 167.494, 80.303 166.691, 90.597 161.473 C 102.103 155.639, 102.566 155.500, 110.465 155.500 C 118.173 155.500, 118.879 155.696, 125.526 159.669 C 137.855 167.039, 153.667 170.057, 163.101 166.841 C 172.715 163.565, 181.011 153.892, 184.546 141.836 C 187.019 133.405, 187.028 116.236, 184.564 106.500 C 182.177 97.068, 175.365 82.900, 169.486 75.142 C 158.238 60.298, 141.762 52.193, 128 54.734 M 78.908 62.890 C 67.497 67.355, 57.369 77.555, 50.541 91.461 C 40.931 111.033, 39.504 130.480, 46.547 145.894 C 51.584 156.918, 59.311 162.349, 70 162.378 C 76.552 162.396, 81.354 160.711, 91 155.012 C 92.925 153.875, 96.421 152.169, 98.769 151.222 L 103.038 149.500 97.617 145.268 C 91.289 140.327, 83.741 130.731, 80.255 123.193 C 72.956 107.409, 75.818 88.592, 87.402 76.208 C 93.894 69.268, 107.459 62.930, 105.504 67.750 C 101.488 77.655, 100.735 81.082, 100.621 90 C 100.461 102.545, 102.039 105.862, 113.700 117.500 C 119.186 122.976, 123.786 128.610, 125.445 131.887 C 128.560 138.040, 129.761 146.377, 128.184 150.901 C 127.199 153.728, 127.307 154.039, 129.465 154.581 C 133.142 155.503, 139.992 151.847, 145.321 146.118 C 151.854 139.093, 154.423 133.161, 154.466 125 C 154.523 114.094, 149.391 107.553, 133.500 98.281 C 116.436 88.324, 109.970 81.421, 107.912 70.960 L 106.778 65.192 101.300 63.096 C 94.494 60.492, 85.255 60.407, 78.908 62.890" stroke="none" fill="#fc0606" fill-rule="evenodd"/><path d="M 137.813 54.683 C 138.534 54.972, 139.397 54.936, 139.729 54.604 C 140.061 54.272, 139.471 54.036, 138.417 54.079 C 137.252 54.127, 137.015 54.364, 137.813 54.683 M 82.813 55.683 C 83.534 55.972, 84.397 55.936, 84.729 55.604 C 85.061 55.272, 84.471 55.036, 83.417 55.079 C 82.252 55.127, 82.015 55.364, 82.813 55.683 M 109.762 59.707 C 111.006 59.946, 112.806 59.937, 113.762 59.687 C 114.718 59.437, 113.700 59.241, 111.500 59.252 C 109.300 59.263, 108.518 59.468, 109.762 59.707 M 78.908 62.890 C 67.497 67.355, 57.369 77.555, 50.541 91.461 C 40.931 111.033, 39.504 130.480, 46.547 145.894 C 51.584 156.918, 59.311 162.349, 70 162.378 C 76.552 162.396, 81.354 160.711, 91 155.012 C 92.925 153.875, 96.421 152.169, 98.769 151.222 L 103.038 149.500 97.617 145.268 C 91.289 140.327, 83.741 130.731, 80.255 123.193 C 72.956 107.409, 75.818 88.592, 87.402 76.208 C 93.894 69.268, 107.459 62.930, 105.504 67.750 C 101.488 77.655, 100.735 81.082, 100.621 90 C 100.461 102.545, 102.039 105.862, 113.700 117.500 C 119.186 122.976, 123.786 128.610, 125.445 131.887 C 128.560 138.040, 129.761 146.377, 128.184 150.901 C 127.199 153.728, 127.307 154.039, 129.465 154.581 C 133.142 155.503, 139.992 151.847, 145.321 146.118 C 151.854 139.093, 154.423 133.161, 154.466 125 C 154.523 114.094, 149.391 107.553, 133.500 98.281 C 116.436 88.324, 109.970 81.421, 107.912 70.960 L 106.778 65.192 101.300 63.096 C 94.494 60.492, 85.255 60.407, 78.908 62.890 M 167 72.378 C 167 72.585, 167.787 73.373, 168.750 74.128 C 170.336 75.371, 170.371 75.336, 169.128 73.750 C 167.821 72.084, 167 71.555, 167 72.378 M 37.079 112.583 C 37.127 113.748, 37.364 113.985, 37.683 113.188 C 37.972 112.466, 37.936 111.603, 37.604 111.271 C 37.272 110.939, 37.036 111.529, 37.079 112.583 M 186.158 117 C 186.158 118.375, 186.385 118.938, 186.662 118.250 C 186.940 117.563, 186.940 116.438, 186.662 115.750 C 186.385 115.063, 186.158 115.625, 186.158 117 M 36.310 124.500 C 36.315 127.800, 36.502 129.029, 36.725 127.232 C 36.947 125.435, 36.943 122.735, 36.715 121.232 C 36.486 119.729, 36.304 121.200, 36.310 124.500 M 186.079 132.583 C 186.127 133.748, 186.364 133.985, 186.683 133.188 C 186.972 132.466, 186.936 131.603, 186.604 131.271 C 186.272 130.939, 186.036 131.529, 186.079 132.583 M 47 158.378 C 47 158.585, 47.788 159.373, 48.750 160.128 C 50.336 161.371, 50.371 161.336, 49.128 159.750 C 47.821 158.084, 47 157.555, 47 158.378 M 68.250 168.689 C 69.213 168.941, 70.787 168.941, 71.750 168.689 C 72.713 168.438, 71.925 168.232, 70 168.232 C 68.075 168.232, 67.287 168.438, 68.250 168.689 M 151.264 168.718 C 152.784 168.947, 155.034 168.941, 156.264 168.704 C 157.494 168.467, 156.250 168.279, 153.500 168.286 C 150.750 168.294, 149.744 168.488, 151.264 168.718" stroke="none" fill="#fcf8f8" fill-rule="evenodd"/></svg>